<svg xmlns="http://www.w3.org/2000/svg" viewBox="0 0 65 63"><path fill="#5dbc9d" d="M15 12a5 5 0 11-10 0 5 5 0 1110 0z"/><path fill="#acb7d0" d="M37 58a4 4 0 11-8 0 4 4 0 118 0z"/><path fill="#efc88e" d="M47 29v3a14 14 0 01-1 3 14 14 0 01-7 7 14 14 0 01-6 1l-7-2a13 13 0 01-1 0 14 14 0 01-6-12 14 14 0 0119-13 14 14 0 012 1 14 14 0 015 5l2 7zM11 41a3 3 0 11-6 0 3 3 0 116 0z"/><path fill="#7bbeeb" d="M61 48a7 7 0 11-14 0 7 7 0 1114 0z"/><path fill="#ed7899" d="M63 9a8 8 0 11-16 0 8 8 0 1116 0z"/><path fill="#8d6c9f" d="M10 18a6 6 0 100-12 6 6 0 000 12zm0-10a4 4 0 110 8 4 4 0 010-8z"/><path fill="#7bbeeb" d="M24 39l1-6 4-4 4 1 4-1 5 5-1 6-3 2-6 1-5-1z"/><path fill="#8d6c9f" d="M33 53a5 5 0 100 10 5 5 0 000-10zm0 8a3 3 0 01-3-3 3 3 0 013-3 3 3 0 013 3 3 3 0 01-3 3zm21-21a8 8 0 00-5 2l-4-4a15 15 0 003-9 15 15 0 00-3-9l4-4a9 9 0 10-3-7 9 9 0 002 6l-4 3a15 15 0 00-23 2l-4-4a1 1 0 00-1 1 1 1 0 000 1l4 3a15 15 0 00-1 14l-8 4a4 4 0 00-3-2 4 4 0 104 4 4 4 0 000-1l8-3a15 15 0 0012 7v6a1 1 0 102 0v-6a15 15 0 0010-4l4 3a8 8 0 00-2 5c0 4 4 8 8 8s8-4 8-8-4-8-8-8zM48 9a7 7 0 017-7 7 7 0 017 7 7 7 0 01-7 7 7 7 0 01-4-1l-2-2a7 7 0 01-1-4zM8 43a2 2 0 010-4 2 2 0 011 0 2 2 0 011 2 2 2 0 01-2 2zm26-1h-2a13 13 0 01-10-6 13 13 0 01-1-2l-1-5a13 13 0 012-6 11 11 0 011-2 13 13 0 0119-1 12 12 0 011 1 13 13 0 010 16 12 12 0 01-1 1 13 13 0 01-8 4zm20 12a6 6 0 01-6-6 6 6 0 011-3 6 6 0 011-2 6 6 0 014-1 6 6 0 016 6 6 6 0 01-6 6z"/><path fill="#faefde" d="M33 20a5 5 0 100 10 5 5 0 100-10z"/><g fill="none" stroke="#8d6c9f" stroke-miterlimit="10" stroke-width="2"><path d="M33 20a5 5 0 100 10 5 5 0 100-10z"/><path d="M36 29a7 7 0 016 7v4M30 29a7 7 0 00-6 7v4"/></g><path fill="#8d6c9f" d="M23 15a1 1 0 01-1 0l-1-2a1 1 0 010-1 1 1 0 012 0l1 2a1 1 0 010 1 1 1 0 01-1 0zm4-2a1 1 0 01-1-1v-2a1 1 0 112 0v2a1 1 0 010 1 1 1 0 01-1 0zm5-1a1 1 0 01-1-1V9a1 1 0 011-1l1 1v2a1 1 0 01-1 1zm4 0a1 1 0 010-1V9a1 1 0 011 0 1 1 0 011 1l-1 2zm5 2a1 1 0 01-1 0 1 1 0 010-1l1-2a1 1 0 011-1 1 1 0 011 2l-1 1a1 1 0 01-1 1z"/></svg>