<svg xmlns="http://www.w3.org/2000/svg" viewBox="0 0 65 63"><path fill="#5dbc9d" d="M15 12a5 5 0 1 1-10 0 5 5 0 1 1 10 0z"/><path fill="#acb7d0" d="M37 58a4 4 0 1 1-8 0 4 4 0 1 1 8 0z"/><path fill="#efc88e" d="M47 29c0 .922-.1 1.82-.262 2.7a14.26 14.26 0 0 1-.898 2.898 14.12 14.12 0 0 1-7.238 7.25c-.922.398-1.902.7-2.9.898C34.82 42.9 33.922 43 33 43c-2.43 0-4.7-.62-6.7-1.72a13.03 13.03 0 0 1-1.121-.672l-.12-.1A13.92 13.92 0 0 1 19 29c0-7.73 6.27-14 14-14 .4 0 .82.02 1.23.06 1.22.102 2.398.363 3.508.77a13.72 13.72 0 0 1 2.34 1.094c1.063.63 2.043 1.387 2.9 2.258.57.582 1.1 1.2 1.55 1.87.28.398.53.82.75 1.25C46.38 24.3 47 26.57 47 29zM11 41a3 3 0 1 1-6 0 3 3 0 1 1 6 0z"/><path fill="#7bbeeb" d="M61 48a7 7 0 1 1-14 0 7 7 0 1 1 14 0z"/><path fill="#ed7899" d="M63 9a8 8 0 1 1-16 0 8 8 0 1 1 16 0z"/><path fill="#8d6c9f" d="M10,18c3.309,0,6-2.691,6-6s-2.691-6-6-6s-6,2.691-6,6S6.691,18,10,18z M10,8c2.207,0,4,1.793,4,4 s-1.793,4-4,4s-4-1.793-4-4S7.793,8,10,8z"/><path fill="#7bbeeb" d="M24 39l1-6 4-4 4 1 4-1 5 5-1 6-3 2-6 1-5-1z"/><path fill="#8d6c9f" d="M33 53c-2.758 0-5 2.242-5 5s2.242 5 5 5 5-2.242 5-5-2.242-5-5-5zm0 8a3.01 3.01 0 0 1-3-3 3.01 3.01 0 0 1 3-3 3.01 3.01 0 0 1 3 3 3.01 3.01 0 0 1-3 3zm21-21c-1.97 0-3.78.72-5.172 1.9l-4.047-3.648A14.85 14.85 0 0 0 48 29a14.88 14.88 0 0 0-3.07-9.078l4.352-3.98C50.84 17.23 52.828 18 55 18c4.96 0 9-4.04 9-9s-4.04-9-9-9-9 4.04-9 9a8.94 8.94 0 0 0 1.879 5.5l-4.27 3.9C40.9 15.7 37.14 14 33 14c-4.7 0-8.922 2.18-11.672 5.602L17.35 16.5c-.43-.348-1.063-.27-1.402.172a1 1 0 0 0 .172 1.398l4.05 3.172C18.8 23.5 18 26.148 18 29c0 2.12.44 4.14 1.238 5.96l-8.098 3.56C10.4 37.6 9.27 37 8 37a4 4 0 1 0 4 4 3.5 3.5 0 0 0-.059-.641l8.22-3.6c2.47 4.07 6.82 6.88 11.84 7.2V50a1 1 0 1 0 2 0v-6.04a14.93 14.93 0 0 0 9.45-4.21l4.03 3.63A7.94 7.94 0 0 0 46 48c0 4.4 3.6 8 8 8s8-3.6 8-8-3.6-8-8-8zM48 9a7.01 7.01 0 0 1 7-7 7.01 7.01 0 0 1 7 7 7.01 7.01 0 0 1-7 7 6.94 6.94 0 0 1-4.23-1.43c-.54-.398-1.008-.9-1.4-1.43A6.86 6.86 0 0 1 48 9zM8 43c-1.102 0-2-.898-2-2s.898-2 2-2a1.94 1.94 0 0 1 1.18.391 1.98 1.98 0 0 1 .82 1.61c0 .078 0 .148-.012.22A2.01 2.01 0 0 1 8 43zm26-1.04c-.328.027-.66.04-1 .04s-.672-.012-1-.04c-4.2-.32-7.86-2.652-9.988-6.03a12.67 12.67 0 0 1-.953-1.77C20.38 32.57 20 30.828 20 29a12.89 12.89 0 0 1 1.762-6.52 11.38 11.38 0 0 1 1.137-1.652C25.28 17.9 28.922 16 33 16c3.56 0 6.8 1.44 9.14 3.762a11.61 11.61 0 0 1 1.309 1.52C45.05 23.44 46 26.12 46 29c0 2.97-1.012 5.72-2.7 7.922a12.39 12.39 0 0 1-1.34 1.488A12.91 12.91 0 0 1 34 41.961zM54 54a6.01 6.01 0 0 1-6-6c0-1.2.36-2.34.98-3.28a5.67 5.67 0 0 1 1.348-1.457A5.94 5.94 0 0 1 54 42a6.01 6.01 0 0 1 6 6 6.01 6.01 0 0 1-6 6z"/><path fill="#faefde" d="M33 20a5 5 0 1 0 0 10 5 5 0 1 0 0-10z"/><g fill="none" stroke="#8d6c9f" stroke-miterlimit="10" stroke-width="2"><path d="M33 20a5 5 0 1 0 0 10 5 5 0 1 0 0-10z"/><path d="M36 29.07c3.392.485 6 3.403 6 6.93v4M30 29.07c-3.392.485-6 3.403-6 6.93v4"/></g><path fill="#8d6c9f" d="M23.003 15.104c-.282-.033-.547-.185-.716-.44l-1.108-1.666a1 1 0 0 1 .279-1.386 1 1 0 0 1 1.386.279l1.108 1.666a1 1 0 0 1-.279 1.386c-.205.136-.443.187-.67.16zm4.188-2.056a1 1 0 0 1-.832-.675l-.637-1.896a1 1 0 1 1 1.896-.636l.637 1.896a1 1 0 0 1-.63 1.266c-.144.048-.292.062-.434.045zm4.578-.877a1 1 0 0 1-.88-.931l-.123-1.996a1 1 0 0 1 .936-1.06c.556-.037 1.026.386 1.06.936l.123 1.996a1 1 0 0 1-.936 1.06.98.98 0 0 1-.18-.005zm4.66.298l-.082-.013a1 1 0 0 1-.783-1.178l.395-1.96c.1-.54.638-.9 1.178-.783a1 1 0 0 1 .783 1.178l-.395 1.96a1 1 0 0 1-1.096.796zm4.408 1.524a.96.96 0 0 1-.33-.1 1 1 0 0 1-.449-1.341l.9-1.8a1 1 0 0 1 1.34-.45 1 1 0 0 1 .449 1.341l-.9 1.8a1 1 0 0 1-1.012.548z"/></svg>