<svg xmlns="http://www.w3.org/2000/svg" viewBox="0 0 172 172"><g fill="none" stroke-miterlimit="10" font-family="none" font-weight="none" font-size="none" text-anchor="none" style="mix-blend-mode:normal"><path d="M0 172V0h172v172z" fill="#ccc"/><path d="M136 142a57 57 0 00-50-29 57 57 0 00-50 29v4h100zM86 40a27 27 0 100 54 27 27 0 000-54z" fill="#ccc"/><path d="M86 98a31 31 0 110-62 31 31 0 010 62zm0-54a23 23 0 00-23 23 23 23 0 0023 23 23 23 0 0023-23 23 23 0 00-23-23zM36 146a4 4 0 01-2-1 4 4 0 01-1-5 62 62 0 0153-31 62 62 0 0153 31 4 4 0 01-1 5 4 4 0 01-6-1 54 54 0 00-46-27 54 54 0 00-46 27 4 4 0 01-4 2z" fill="#444b54"/></g></svg>