<svg xmlns="http://www.w3.org/2000/svg" style="isolation:isolate" viewBox="0 0 512 512"><defs><clipPath id="a"><path d="M0 0h512v512H0z"/></clipPath></defs><g clip-path="url(#a)"><mask id="b"><path fill="#fff" fill-rule="evenodd" d="M41 0h430c23 0 41 18 41 41v430c0 23-18 41-41 41H41c-23 0-41-18-41-41V41C0 18 18 0 41 0zm0 5h430a36 36 0 0136 36v430a36 36 0 01-36 36H41a36 36 0 01-36-36V41A36 36 0 0141 5z"/></mask><path fill-rule="evenodd" d="M41 0h430c23 0 41 18 41 41v430c0 23-18 41-41 41H41c-23 0-41-18-41-41V41C0 18 18 0 41 0zm0 5h430a36 36 0 0136 36v430a36 36 0 01-36 36H41a36 36 0 01-36-36V41A36 36 0 0141 5z"/><path fill-rule="evenodd" stroke="#000" stroke-linecap="square" stroke-miterlimit="3" stroke-width="2" d="M41 0h430c23 0 41 18 41 41v430c0 23-18 41-41 41H41c-23 0-41-18-41-41V41C0 18 18 0 41 0zm0 5h430a36 36 0 0136 36v430a36 36 0 01-36 36H41a36 36 0 01-36-36V41A36 36 0 0141 5z" mask="url(#b)" vector-effect="non-scaling-stroke"/><mask id="c"><path fill="#fff" d="M108 107l213 143q4 3 4 6t-7 8L108 405q-7 5-13 5-3 0-7-3l-16-11q-3-2-3-5 0-4 7-9l187-126L76 130q-7-5-7-9 0-2 3-5l16-11q4-3 7-3 6 0 13 5z"/></mask><path d="M108 107l213 143q4 3 4 6t-7 8L108 405q-7 5-13 5-3 0-7-3l-16-11q-3-2-3-5 0-4 7-9l187-126L76 130q-7-5-7-9 0-2 3-5l16-11q4-3 7-3 6 0 13 5z"/><path stroke="#FFF" stroke-linecap="square" stroke-miterlimit="3" stroke-width="4" d="M108 107l213 143h0q4 3 4 6h0q0 3-7 8h0L108 405h0q-7 5-13 5h0q-3 0-7-3h0l-16-11h0q-3-2-3-5h0q0-4 7-9h0l187-126L76 130h0q-7-5-7-9h0q0-2 3-5h0l16-11h0q4-3 7-3h0q6 0 13 5h0z" mask="url(#c)" vector-effect="non-scaling-stroke"/><mask id="d"><path fill="#fff" d="M267 407q-5 0-8-3-3-4-3-12v-2q0-9 3-12 3-4 8-4h159q6 0 8 4 3 3 3 12v2q0 8-3 12-2 3-8 3H267z"/></mask><path d="M267 407q-5 0-8-3-3-4-3-12v-2q0-9 3-12 3-4 8-4h159q6 0 8 4 3 3 3 12v2q0 8-3 12-2 3-8 3H267z"/><path stroke="#FFF" stroke-linecap="square" stroke-miterlimit="3" stroke-width="4" d="M267 407h0q-5 0-8-3h0q-3-4-3-12h0v-2h0q0-9 3-12h0q3-4 8-4h159q6 0 8 4h0q3 3 3 12h0v2h0q0 8-3 12h0q-2 3-8 3h0-159z" mask="url(#d)" vector-effect="non-scaling-stroke"/></g></svg>