<?xml version="1.0" encoding="UTF-8" standalone="no"?><!-- Generator: Gravit.io --><svg xmlns="http://www.w3.org/2000/svg" xmlns:xlink="http://www.w3.org/1999/xlink" style="isolation:isolate" viewBox="0 0 192 192" width="192pt" height="192pt"><defs><clipPath id="_clipPath_HGILyLeLhQwzVBFs0ETQdM7haDzbijw6"><rect width="192" height="192"/></clipPath></defs><g clip-path="url(#_clipPath_HGILyLeLhQwzVBFs0ETQdM7haDzbijw6)"><mask id="_mask_19jdT8F0e5khYi0HSgmSpIoVf25rpBqj"><path d=" M 15.36 0 L 176.64 0 C 185.117 0 192 6.883 192 15.36 L 192 176.64 C 192 185.117 185.117 192 176.64 192 L 15.36 192 C 6.883 192 0 185.117 0 176.64 L 0 15.36 C 0 6.883 6.883 0 15.36 0 Z  M 15.36 4.92 L 176.64 4.92 C 180.204 4.92 187.08 11.796 187.08 15.36 L 187.08 176.64 C 187.08 180.204 180.204 187.08 176.64 187.08 L 15.36 187.08 C 11.796 187.08 4.92 180.204 4.92 176.64 L 4.92 15.36 C 4.92 11.796 11.796 4.92 15.36 4.92 Z " fill-rule="evenodd" fill="white" stroke="none"/></mask><path d=" M 15.36 0 L 176.64 0 C 185.117 0 192 6.883 192 15.36 L 192 176.64 C 192 185.117 185.117 192 176.64 192 L 15.36 192 C 6.883 192 0 185.117 0 176.64 L 0 15.36 C 0 6.883 6.883 0 15.36 0 Z  M 15.36 4.92 L 176.64 4.92 C 180.204 4.92 187.08 11.796 187.08 15.36 L 187.08 176.64 C 187.08 180.204 180.204 187.08 176.64 187.08 L 15.36 187.08 C 11.796 187.08 4.92 180.204 4.92 176.64 L 4.92 15.36 C 4.92 11.796 11.796 4.92 15.36 4.92 Z " fill-rule="evenodd" fill="rgb(0,0,0)"/><path d=" M 15.36 0 L 176.64 0 C 185.117 0 192 6.883 192 15.36 L 192 176.64 C 192 185.117 185.117 192 176.64 192 L 15.36 192 C 6.883 192 0 185.117 0 176.64 L 0 15.36 C 0 6.883 6.883 0 15.36 0 Z  M 15.36 4.92 L 176.64 4.92 C 180.204 4.92 187.08 11.796 187.08 15.36 L 187.08 176.64 C 187.08 180.204 180.204 187.08 176.64 187.08 L 15.36 187.08 C 11.796 187.08 4.92 180.204 4.92 176.64 L 4.92 15.36 C 4.92 11.796 11.796 4.92 15.36 4.92 Z " fill-rule="evenodd" fill="rgb(0,0,0)" mask="url(#_mask_19jdT8F0e5khYi0HSgmSpIoVf25rpBqj)" vector-effect="non-scaling-stroke" stroke-width="2" stroke="rgb(0,0,0)" stroke-linejoin="miter" stroke-linecap="square" stroke-miterlimit="3"/><mask id="_mask_Kpai4Uc6ZUPlhaBueOn9AMqpAtoNeuT6"><path d=" M 40.497 40.071 L 120.455 93.889 L 120.455 93.889 Q 121.728 94.769 121.728 95.824 L 121.728 95.824 L 121.728 95.824 Q 121.728 97.231 119.182 98.99 L 119.182 98.99 L 40.497 151.929 L 40.497 151.929 Q 37.951 153.6 35.786 153.6 L 35.786 153.6 L 35.786 153.6 Q 34.386 153.6 33.113 152.721 L 33.113 152.721 L 27.001 148.5 L 27.001 148.5 Q 25.728 147.62 25.728 146.565 L 25.728 146.565 L 25.728 146.565 Q 25.728 145.158 28.402 143.399 L 28.402 143.399 L 98.556 96 L 28.402 48.689 L 28.402 48.689 Q 25.728 47.018 25.728 45.523 L 25.728 45.523 L 25.728 45.523 Q 25.728 44.556 27.001 43.588 L 27.001 43.588 L 33.113 39.279 L 33.113 39.279 Q 34.386 38.4 35.786 38.4 L 35.786 38.4 L 35.786 38.4 Q 37.951 38.4 40.497 40.071 L 40.497 40.071 Z " fill="white" stroke="none"/></mask><path d=" M 40.497 40.071 L 120.455 93.889 L 120.455 93.889 Q 121.728 94.769 121.728 95.824 L 121.728 95.824 L 121.728 95.824 Q 121.728 97.231 119.182 98.99 L 119.182 98.99 L 40.497 151.929 L 40.497 151.929 Q 37.951 153.6 35.786 153.6 L 35.786 153.6 L 35.786 153.6 Q 34.386 153.6 33.113 152.721 L 33.113 152.721 L 27.001 148.5 L 27.001 148.5 Q 25.728 147.62 25.728 146.565 L 25.728 146.565 L 25.728 146.565 Q 25.728 145.158 28.402 143.399 L 28.402 143.399 L 98.556 96 L 28.402 48.689 L 28.402 48.689 Q 25.728 47.018 25.728 45.523 L 25.728 45.523 L 25.728 45.523 Q 25.728 44.556 27.001 43.588 L 27.001 43.588 L 33.113 39.279 L 33.113 39.279 Q 34.386 38.4 35.786 38.4 L 35.786 38.4 L 35.786 38.4 Q 37.951 38.4 40.497 40.071 L 40.497 40.071 Z " fill="rgb(0,0,0)"/><path d=" M 40.497 40.071 L 120.455 93.889 L 120.455 93.889 Q 121.728 94.769 121.728 95.824 L 121.728 95.824 L 121.728 95.824 Q 121.728 97.231 119.182 98.99 L 119.182 98.99 L 40.497 151.929 L 40.497 151.929 Q 37.951 153.6 35.786 153.6 L 35.786 153.6 L 35.786 153.6 Q 34.386 153.6 33.113 152.721 L 33.113 152.721 L 27.001 148.5 L 27.001 148.5 Q 25.728 147.62 25.728 146.565 L 25.728 146.565 L 25.728 146.565 Q 25.728 145.158 28.402 143.399 L 28.402 143.399 L 98.556 96 L 28.402 48.689 L 28.402 48.689 Q 25.728 47.018 25.728 45.523 L 25.728 45.523 L 25.728 45.523 Q 25.728 44.556 27.001 43.588 L 27.001 43.588 L 33.113 39.279 L 33.113 39.279 Q 34.386 38.4 35.786 38.4 L 35.786 38.4 L 35.786 38.4 Q 37.951 38.4 40.497 40.071 L 40.497 40.071 Z " fill="rgb(0,0,0)" mask="url(#_mask_Kpai4Uc6ZUPlhaBueOn9AMqpAtoNeuT6)" vector-effect="non-scaling-stroke" stroke-width="4" stroke="rgb(255,255,255)" stroke-linejoin="miter" stroke-linecap="square" stroke-miterlimit="3"/><mask id="_mask_BORDuf2lYGxGKxn8NfDCGjaGe47btGDE"><path d=" M 100.281 152.721 L 100.281 152.721 Q 98.067 152.721 97.033 151.32 L 97.033 151.32 L 97.033 151.32 Q 96 149.919 96 146.884 L 96 146.884 L 96 146.067 L 96 146.067 Q 96 143.032 97.033 141.631 L 97.033 141.631 L 97.033 141.631 Q 98.067 140.23 100.281 140.23 L 100.281 140.23 L 159.625 140.23 L 159.625 140.23 Q 161.84 140.23 162.873 141.631 L 162.873 141.631 L 162.873 141.631 Q 163.907 143.032 163.907 146.067 L 163.907 146.067 L 163.907 146.884 L 163.907 146.884 Q 163.907 149.919 162.873 151.32 L 162.873 151.32 L 162.873 151.32 Q 161.84 152.721 159.625 152.721 L 159.625 152.721 L 100.281 152.721 Z " fill="white" stroke="none"/></mask><path d=" M 100.281 152.721 L 100.281 152.721 Q 98.067 152.721 97.033 151.32 L 97.033 151.32 L 97.033 151.32 Q 96 149.919 96 146.884 L 96 146.884 L 96 146.067 L 96 146.067 Q 96 143.032 97.033 141.631 L 97.033 141.631 L 97.033 141.631 Q 98.067 140.23 100.281 140.23 L 100.281 140.23 L 159.625 140.23 L 159.625 140.23 Q 161.84 140.23 162.873 141.631 L 162.873 141.631 L 162.873 141.631 Q 163.907 143.032 163.907 146.067 L 163.907 146.067 L 163.907 146.884 L 163.907 146.884 Q 163.907 149.919 162.873 151.32 L 162.873 151.32 L 162.873 151.32 Q 161.84 152.721 159.625 152.721 L 159.625 152.721 L 100.281 152.721 Z " fill="rgb(0,0,0)"/><path d=" M 100.281 152.721 L 100.281 152.721 Q 98.067 152.721 97.033 151.32 L 97.033 151.32 L 97.033 151.32 Q 96 149.919 96 146.884 L 96 146.884 L 96 146.067 L 96 146.067 Q 96 143.032 97.033 141.631 L 97.033 141.631 L 97.033 141.631 Q 98.067 140.23 100.281 140.23 L 100.281 140.23 L 159.625 140.23 L 159.625 140.23 Q 161.84 140.23 162.873 141.631 L 162.873 141.631 L 162.873 141.631 Q 163.907 143.032 163.907 146.067 L 163.907 146.067 L 163.907 146.884 L 163.907 146.884 Q 163.907 149.919 162.873 151.32 L 162.873 151.32 L 162.873 151.32 Q 161.84 152.721 159.625 152.721 L 159.625 152.721 L 100.281 152.721 Z " fill="rgb(0,0,0)" mask="url(#_mask_BORDuf2lYGxGKxn8NfDCGjaGe47btGDE)" vector-effect="non-scaling-stroke" stroke-width="4" stroke="rgb(255,255,255)" stroke-linejoin="miter" stroke-linecap="square" stroke-miterlimit="3"/></g></svg>